<?xml version="1.0" encoding="iso-8859-1"?>
<!-- Generator: Adobe Illustrator 19.0.0, SVG Export Plug-In . SVG Version: 6.00 Build 0)  -->
<svg version="1.1" id="Layer_1" xmlns="http://www.w3.org/2000/svg" xmlns:xlink="http://www.w3.org/1999/xlink" x="0px" y="0px"
	 viewBox="0 0 511.98 511.98" style="enable-background:new 0 0 511.98 511.98;" xml:space="preserve">
<path style="fill:red;" d="M479.981,85.337H31.999C14.359,85.337,0,99.688,0,117.336v277.309
	c0,17.655,14.359,31.999,31.999,31.999h447.982c17.655,0,31.999-14.344,31.999-31.999V117.336
	C511.98,99.687,497.636,85.337,479.981,85.337z"/>
<path style="fill:#F6BB42;" d="M424.858,271.408l-21.327-31.999c-1.969-2.961-5.312-4.75-8.875-4.75H181.337
	c-5.891,0-10.671,4.781-10.671,10.671v85.317c0,5.906,4.781,10.688,10.671,10.688h106.652c2.844,0,5.547-1.125,7.547-3.125
	l13.796-13.796l13.78,13.796c4.172,4.156,10.922,4.156,15.094,0l13.781-13.796l13.795,13.796c2.078,2.062,4.812,3.125,7.547,3.125
	c2.733,0,5.452-1.062,7.546-3.125l21.328-21.343c0.5-0.5,0.938-1.031,1.328-1.625l21.327-31.999
	C427.248,279.649,427.248,274.993,424.858,271.408z"/>
<path style="fill:#656D78;" d="M511.98,159.998v-42.662c0-17.648-14.344-31.999-31.999-31.999H31.999
	C14.359,85.337,0,99.688,0,117.336v42.662H511.98z"/>
<g>
	<polygon style="fill:#434A54;" points="16.921,159.998 47.092,159.998 121.761,85.337 91.59,85.337 	"/>
	<polygon style="fill:#434A54;" points="80.919,159.998 111.089,159.998 185.759,85.337 155.588,85.337 	"/>
	<polygon style="fill:#434A54;" points="144.916,159.998 175.087,159.998 249.756,85.337 219.585,85.337 	"/>
	<polygon style="fill:#434A54;" points="208.913,159.998 239.084,159.998 313.753,85.337 283.583,85.337 	"/>
	<polygon style="fill:#434A54;" points="272.911,159.998 303.082,159.998 377.75,85.337 347.581,85.337 	"/>
	<polygon style="fill:#434A54;" points="336.909,159.998 367.079,159.998 441.748,85.337 411.577,85.337 	"/>
</g>
<path style="opacity:0.1;enable-background:new    ;" d="M196.851,277.337c0,5.875,4.781,10.656,10.671,10.656h214.179l3.156-4.75
	c2.39-3.594,2.39-8.25,0-11.835l-3.156-4.75H207.523C201.633,266.658,196.851,271.439,196.851,277.337z"/>
<path style="fill:#434A54;" d="M475.575,85.337l-74.669,74.661h30.17l68.186-68.185c-5.359-4.062-12.047-6.477-19.28-6.477
	L475.575,85.337L475.575,85.337z"/>
<path style="fill:#FFCE54;" d="M181.337,202.66c-47.061,0-85.341,38.28-85.341,85.333c0,47.061,38.28,85.34,85.341,85.34
	c47.045,0,85.324-38.279,85.324-85.34C266.661,240.94,228.382,202.66,181.337,202.66z M149.338,298.648
	c-5.89,0-10.671-4.766-10.671-10.655c0-5.891,4.781-10.656,10.671-10.656c5.891,0,10.656,4.766,10.656,10.656
	C159.994,293.883,155.228,298.648,149.338,298.648z"/>
<g>
</g>
<g>
</g>
<g>
</g>
<g>
</g>
<g>
</g>
<g>
</g>
<g>
</g>
<g>
</g>
<g>
</g>
<g>
</g>
<g>
</g>
<g>
</g>
<g>
</g>
<g>
</g>
<g>
</g>
</svg>
