 <svg version="1.0" xmlns="http://www.w3.org/2000/svg" width="700.000000pt" height="700.000000pt" viewBox="0 0 700.000000 700.000000" preserveAspectRatio="xMidYMid meet">
<metadata>
Created by potrace 1.12, written by Peter Selinger 2001-2015
</metadata>
<g transform="translate(0.000000,700.000000) scale(0.100000,-0.100000)" fill="#000000" stroke="none">
<path d="M3195 6850 c-246 -36 -513 -143 -712 -283 -105 -74 -328 -288 -412
-395 -174 -220 -278 -455 -327 -737 -24 -134 -29 -458 -10 -615 46 -394 183
-675 473 -971 79 -80 143 -149 143 -152 0 -4 -492 -7 -1093 -7 l-1094 0 -21
-23 c-21 -22 -22 -33 -22 -174 0 -133 2 -152 18 -166 17 -16 147 -17 1659 -17
1075 0 1677 -4 1749 -11 436 -42 844 -265 1060 -579 145 -211 230 -431 269
-689 14 -95 14 -116 0 -220 -40 -293 -144 -537 -331 -777 -135 -174 -378 -334
-644 -424 -127 -44 -323 -79 -436 -80 -98 0 -363 30 -490 56 -494 101 -972
324 -1358 635 l-74 59 -95 0 -94 0 -47 -50 -46 -49 0 -100 0 -100 73 -64 c386
-346 917 -608 1442 -712 245 -48 378 -60 710 -60 286 0 317 2 405 22 278 66
467 151 665 302 99 76 325 301 396 396 169 223 273 475 310 755 16 119 16 487
0 600 -21 150 -64 299 -122 430 -35 80 -115 222 -158 280 -52 72 -195 232
-267 299 -40 37 -70 71 -67 75 4 3 500 6 1103 6 1050 0 1098 1 1113 18 14 16
17 43 17 169 0 143 -1 150 -23 171 l-23 22 -1660 0 c-1826 0 -1787 -1 -2004
61 -220 63 -413 163 -581 302 -226 187 -412 547 -464 901 -20 132 -14 223 27
400 72 313 258 622 474 787 219 167 431 261 701 310 188 34 436 18 744 -47
197 -41 458 -126 626 -204 56 -26 76 -30 152 -30 l88 0 52 54 51 55 0 90 0 91
-48 49 c-54 55 -117 87 -309 157 -229 83 -459 138 -713 170 -136 18 -685 28
-775 14z"></path>
<path d="M3433 5475 c-78 -17 -169 -65 -216 -113 -78 -81 -125 -215 -113 -321
13 -106 80 -220 166 -280 215 -150 493 -67 599 178 74 174 -6 398 -177 489
-47 25 -169 64 -192 61 -3 0 -33 -7 -67 -14z"></path>
<path d="M3424 2310 c-23 -5 -73 -25 -112 -44 -55 -28 -80 -48 -116 -95 -69
-89 -90 -148 -90 -256 -1 -81 2 -97 31 -157 58 -123 152 -197 296 -232 62 -16
72 -16 135 0 143 35 237 109 295 232 28 59 32 78 32 152 0 103 -25 177 -88
260 -78 102 -255 167 -383 140z"></path>
</g>
</svg>