<?xml version="1.0" standalone="no"?>
<!DOCTYPE svg PUBLIC "-//W3C//DTD SVG 20010904//EN"
 "http://www.w3.org/TR/2001/REC-SVG-20010904/DTD/svg10.dtd">
<svg version="1.0" xmlns="http://www.w3.org/2000/svg"
 width="500.000000pt" height="468.000000pt" viewBox="0 0 500.000000 468.000000"
 preserveAspectRatio="xMidYMid meet">

<g transform="translate(0.000000,468.000000) scale(0.100000,-0.100000)"
fill="#000080" stroke="none">
<path d="M2295 4673 c-427 -55 -656 -119 -960 -268 -263 -129 -464 -275 -676
-491 -360 -368 -568 -791 -638 -1296 -37 -262 -24 -501 43 -793 127 -558 498
-1075 1011 -1410 303 -198 626 -322 1025 -392 152 -26 645 -26 805 0 285 48
510 119 760 242 700 344 1162 939 1307 1682 20 105 23 147 23 388 0 297 -10
382 -74 605 -111 385 -295 694 -591 991 -413 415 -896 647 -1519 729 -142 18
-419 26 -516 13z m500 -177 c516 -75 984 -289 1357 -622 237 -212 461 -562
576 -899 151 -441 152 -831 3 -1268 -198 -580 -575 -1006 -1136 -1282 -315
-154 -607 -235 -964 -265 -198 -17 -455 10 -711 75 -337 85 -696 264 -966 480
-375 301 -653 772 -753 1273 -56 282 -49 514 24 802 111 436 377 877 684 1130
421 347 871 531 1456 594 71 7 327 -3 430 -18z"/>
<path d="M2325 4234 c-87 -9 -237 -54 -318 -95 -168 -86 -351 -269 -436 -436
-68 -135 -96 -267 -96 -458 0 -297 74 -487 269 -692 l69 -73 -600 0 c-452 0
-602 -3 -611 -12 -7 -7 -12 -45 -12 -98 0 -72 3 -90 18 -104 17 -15 97 -16
976 -16 1089 0 1013 6 1203 -86 88 -42 128 -68 184 -121 148 -140 235 -324
246 -519 5 -90 3 -110 -22 -195 -31 -103 -29 -100 -70 -179 -94 -182 -252
-309 -477 -381 -65 -21 -90 -24 -233 -23 -112 1 -178 6 -220 17 -33 9 -73 18
-90 21 -16 3 -70 19 -120 36 -49 17 -94 32 -100 33 -81 22 -419 221 -470 277
-14 16 -30 20 -80 20 -54 0 -64 -3 -88 -28 -23 -24 -27 -37 -27 -87 0 -58 1
-59 52 -108 117 -109 351 -245 533 -309 224 -80 341 -100 605 -105 177 -4 227
-2 280 12 36 9 76 19 90 22 14 3 61 22 105 43 232 107 430 320 514 552 72 198
74 517 4 703 -50 132 -95 202 -197 311 -47 51 -86 94 -86 96 0 2 266 2 592 0
540 -2 593 -1 610 14 15 14 18 32 18 104 0 60 -4 91 -13 98 -9 8 -303 12 -963
15 -522 2 -965 6 -984 9 -116 19 -284 93 -389 173 -70 53 -153 160 -199 257
-87 180 -105 346 -55 507 43 139 131 292 209 362 41 36 126 96 155 109 13 5
31 14 39 18 39 22 62 31 144 56 192 59 498 22 786 -95 121 -50 183 -53 223
-11 23 24 27 37 27 88 0 53 -3 64 -27 87 -16 14 -50 35 -78 47 -27 12 -59 25
-70 30 -78 33 -243 75 -374 95 -102 16 -368 27 -446 19z"/>
<path d="M2400 3462 c-134 -39 -198 -187 -136 -317 29 -62 58 -89 116 -109
190 -66 356 93 298 285 -20 68 -70 116 -145 139 -75 23 -63 23 -133 2z"/>
<path d="M2364 1696 c-61 -28 -96 -72 -118 -145 -15 -50 -15 -59 0 -113 27
-96 123 -171 219 -171 96 0 192 75 218 171 22 78 -2 170 -58 224 -61 58 -176
73 -261 34z"/>
</g>
</svg>
